<svg id="Componente_4_1" data-name="Componente 4 – 1" xmlns="http://www.w3.org/2000/svg" width="60" height="45" viewBox="0 0 60 45">
  <circle id="Elipse_19" data-name="Elipse 19" cx="8" cy="8" r="8" transform="translate(22 5)" fill="#ffad82"/>
  <path id="Retângulo_34" data-name="Retângulo 34" d="M13,0h0A13,13,0,0,1,26,13v5.4A2.6,2.6,0,0,1,23.4,21H2.6A2.6,2.6,0,0,1,0,18.4V13A13,13,0,0,1,13,0Z" transform="translate(17 24)" fill="#ffad82"/>
  <circle id="Elipse_20" data-name="Elipse 20" cx="8.5" cy="8.5" r="8.5" transform="translate(39)" fill="#ffad82"/>
  <path id="Retângulo_35" data-name="Retângulo 35" d="M13,0h0A13,13,0,0,1,26,13v5.4A2.6,2.6,0,0,1,23.4,21H2.6A2.6,2.6,0,0,1,0,18.4V13A13,13,0,0,1,13,0Z" transform="translate(34 19)" fill="#ffad82"/>
  <circle id="Elipse_21" data-name="Elipse 21" cx="8.5" cy="8.5" r="8.5" transform="translate(4)" fill="#ffad82"/>
  <path id="Retângulo_36" data-name="Retângulo 36" d="M13,0h0A13,13,0,0,1,26,13v5.4A2.6,2.6,0,0,1,23.4,21H2.6A2.6,2.6,0,0,1,0,18.4V13A13,13,0,0,1,13,0Z" transform="translate(0 19)" fill="#ffad82"/>
</svg>
