<svg xmlns="http://www.w3.org/2000/svg" xmlns:xlink="http://www.w3.org/1999/xlink" width="259" height="430" viewBox="0 0 259 430"><defs><style>.a{clip-path:url(#b);}.b{fill:#fff;}.c{fill:rgba(255,255,255,0);}</style><clipPath id="b"><rect width="259" height="430"/></clipPath></defs><g id="a" class="a"><rect class="c" width="259" height="430"/><path class="b" d="M129,429h0c-.081-.117-8.273-11.907-20.155-30.306C97.809,381.608,81.159,355.043,64.5,325.516c-18.725-33.188-33.644-63.279-44.344-89.436a350.525,350.525,0,0,1-14.613-42.5C1.865,179.646,0,167.338,0,157a191.389,191.389,0,0,1,2.621-31.641,181.9,181.9,0,0,1,7.517-29.47A170.207,170.207,0,0,1,22.031,69.22,155.694,155.694,0,0,1,37.783,45.984,139.446,139.446,0,0,1,56.875,26.813,123.931,123.931,0,0,1,78.787,12.338,112.313,112.313,0,0,1,103,3.19a107.545,107.545,0,0,1,52,0,112.314,112.314,0,0,1,24.215,9.148,123.934,123.934,0,0,1,21.913,14.475,139.445,139.445,0,0,1,19.092,19.171A155.694,155.694,0,0,1,235.969,69.22a170.206,170.206,0,0,1,11.894,26.669,181.9,181.9,0,0,1,7.517,29.47A191.388,191.388,0,0,1,258,157c0,10.339-1.865,22.647-5.543,36.582a350.525,350.525,0,0,1-14.613,42.5c-10.7,26.157-25.619,56.248-44.344,89.436-16.659,29.527-33.309,56.092-44.344,73.178C137.274,417.092,129.082,428.882,129,429Zm0-318a46,46,0,1,0,46,46A46.052,46.052,0,0,0,129,111Z"/></g></svg>