<svg xmlns="http://www.w3.org/2000/svg" xmlns:xlink="http://www.w3.org/1999/xlink" width="132" height="132" viewBox="0 0 132 132"><defs><style>.a{clip-path:url(#b);}.b{fill:#fff;}.c{fill:rgba(0,0,0,0);}</style><clipPath id="b"><rect width="132" height="132"/></clipPath></defs><g id="a" class="a"><rect class="c" width="132" height="132"/><path class="b" d="M96,132H36A35.97,35.97,0,0,1,0,96V36A35.97,35.97,0,0,1,36,0H96a35.97,35.97,0,0,1,36,36V96a35.97,35.97,0,0,1-36,36ZM34,13A22.025,22.025,0,0,0,12,35V99a22.025,22.025,0,0,0,22,22H98a22.025,22.025,0,0,0,22-22V35A22.025,22.025,0,0,0,98,13Z"/><path class="b" d="M35,70A35.009,35.009,0,0,1,21.376,2.75a35.009,35.009,0,0,1,27.247,64.5A34.781,34.781,0,0,1,35,70Zm0-57A23,23,0,1,0,58,36,23.026,23.026,0,0,0,35,13Z" transform="translate(32 31)"/><circle class="b" cx="9" cy="9" r="9" transform="translate(93 22)"/></g></svg>