<svg xmlns="http://www.w3.org/2000/svg" xmlns:xlink="http://www.w3.org/1999/xlink" width="79" height="145" viewBox="0 0 79 145"><defs><clipPath id="b"><rect width="79" height="145"/></clipPath></defs><g id="a" clip-path="url(#b)"><rect width="79" height="145" fill="rgba(0,0,0,0)"/><rect width="30" height="107" transform="translate(22 38)" fill="#e38a3a"/><rect width="79" height="29" transform="translate(0 53)" fill="#e38a3a"/><path d="M30,59H19A19,19,0,0,1,0,40V19A19,19,0,0,1,19,0H95a19,19,0,0,1,19,19V40A19,19,0,0,1,95,59H76V38A10.011,10.011,0,0,0,66,28H40A10.011,10.011,0,0,0,30,38V59Z" transform="translate(22)" fill="#e38a3a"/></g></svg>