<svg id="Componente_1_1" data-name="Componente 1 – 1" xmlns="http://www.w3.org/2000/svg" width="89" height="122" viewBox="0 0 89 122">
  <path id="Subtração_3" data-name="Subtração 3" d="M55,122H0V0H14.889a8.377,8.377,0,0,0,3.738,6.686,15.209,15.209,0,0,0,9.024,2.769,15.209,15.209,0,0,0,9.024-2.769A8.377,8.377,0,0,0,40.414,0H55V122Z" transform="translate(17)" fill="#ffad82"/>
  <rect id="Retângulo_50" data-name="Retângulo 50" width="17" height="3" transform="translate(0 13)" fill="#ffad82"/>
  <rect id="Retângulo_51" data-name="Retângulo 51" width="17" height="3" transform="translate(0 29)" fill="#ffad82"/>
  <rect id="Retângulo_52" data-name="Retângulo 52" width="17" height="4" transform="translate(0 44)" fill="#ffad82"/>
  <rect id="Retângulo_53" data-name="Retângulo 53" width="17" height="4" transform="translate(0 60)" fill="#ffad82"/>
  <rect id="Retângulo_54" data-name="Retângulo 54" width="17" height="4" transform="translate(0 76)" fill="#ffad82"/>
  <rect id="Retângulo_55" data-name="Retângulo 55" width="17" height="3" transform="translate(0 92)" fill="#ffad82"/>
  <rect id="Retângulo_56" data-name="Retângulo 56" width="17" height="3" transform="translate(0 108)" fill="#ffad82"/>
  <rect id="Retângulo_57" data-name="Retângulo 57" width="17" height="3" transform="translate(72 13)" fill="#ffad82"/>
  <rect id="Retângulo_58" data-name="Retângulo 58" width="17" height="3" transform="translate(72 29)" fill="#ffad82"/>
  <rect id="Retângulo_59" data-name="Retângulo 59" width="17" height="4" transform="translate(72 44)" fill="#ffad82"/>
  <rect id="Retângulo_60" data-name="Retângulo 60" width="17" height="4" transform="translate(72 60)" fill="#ffad82"/>
  <rect id="Retângulo_61" data-name="Retângulo 61" width="17" height="4" transform="translate(72 76)" fill="#ffad82"/>
  <rect id="Retângulo_62" data-name="Retângulo 62" width="17" height="3" transform="translate(72 92)" fill="#ffad82"/>
  <rect id="Retângulo_63" data-name="Retângulo 63" width="17" height="3" transform="translate(72 108)" fill="#ffad82"/>
</svg>
