<svg xmlns="http://www.w3.org/2000/svg" xmlns:xlink="http://www.w3.org/1999/xlink" width="36" height="34" viewBox="0 0 36 34"><defs><style>.a{clip-path:url(#b);}.b{fill:#e38a3a;}.c{fill:rgba(0,0,0,0);}</style><clipPath id="b"><rect width="36" height="34"/></clipPath></defs><g id="a" class="a"><rect class="c" width="36" height="34"/><rect class="b" width="8" height="23" transform="translate(0 11)"/><circle class="b" cx="4" cy="4" r="4"/><rect class="b" width="8" height="23" transform="translate(12 11)"/><rect class="b" width="8" height="16" transform="translate(28 18)"/><path class="b" d="M16.124,9H8.631A3.347,3.347,0,0,0,7.458,6.487,4.238,4.238,0,0,0,4.63,5.444a3.825,3.825,0,0,0-4,3.492C-.282,8.662-.021,7.531.283,6.222A10.2,10.2,0,0,0,.631,4c0-1.222,1.674-2.077,3.078-2.578A16.222,16.222,0,0,1,8.443.5c0,.009.418.877,1.125,1a.682.682,0,0,0,.117.01c.706,0,1.686-1,1.7-1.01a8.853,8.853,0,0,1,3.656,2.734A6.246,6.246,0,0,1,16.63,6.875c0,1.222-.573,1.391-1.192,1.391a8.571,8.571,0,0,1-1.118-.112A11.952,11.952,0,0,0,12.631,8l3.493,1Z" transform="translate(19.369 11)"/><path class="b" d="M7.639,0c4.219,0,7.3,2.846,7.3,5.716S9.062,3.767,4.843,3.767,0,8.066,0,5.2,3.42,0,7.639,0Z" transform="translate(19.75 10.75)"/></g></svg>