<svg id="Componente_1_1" data-name="Componente 1 – 1" xmlns="http://www.w3.org/2000/svg" width="315" height="438" viewBox="0 0 315 438">
  <path id="Subtração_2" data-name="Subtração 2" d="M369.7,438H113.9l-11.742-14.5H366.2V10.5H77.2V392.683L63.7,376.011V9a9.01,9.01,0,0,1,9-9h297a9.01,9.01,0,0,1,9,9V429A9.01,9.01,0,0,1,369.7,438Z" transform="translate(-63.699 0)" fill="#ffad82"/>
  <g id="Polígono_1" data-name="Polígono 1" transform="translate(39.369 358.005) rotate(51)" fill="rgba(255,255,255,0)">
    <path d="M 54.43606948852539 37.00000381469727 L 4.563939094543457 37.00000381469727 C 3.134986400604248 37.00000381469727 1.764080405235291 36.57661437988281 0.5994216203689575 35.77562713623047 C -0.4747783839702606 35.03683853149414 -1.320896029472351 34.01121520996094 -1.847460746765137 32.80961608886719 C -2.374025344848633 31.6080265045166 -2.554625511169434 30.29074478149414 -2.369719505310059 29.00019073486328 C -2.16923713684082 27.60095596313477 -1.551331281661987 26.30603790283203 -0.5827901363372803 25.25540351867676 L 24.35329246520996 -1.793902635574341 C 25.67461013793945 -3.227220296859741 27.55051612854004 -4.049291133880615 29.49999809265137 -4.049291133880615 C 31.4494686126709 -4.049291133880615 33.32537460327148 -3.227231979370117 34.6467170715332 -1.793890953063965 L 59.5827751159668 25.25538063049316 C 60.55131530761719 26.30601501464844 61.16923522949219 27.60093307495117 61.36971664428711 29.00016784667969 C 61.55462265014648 30.29071998596191 61.3740348815918 31.60800361633301 60.84746932983398 32.80960464477539 C 60.32090377807617 34.01120376586914 59.47478485107422 35.03683853149414 58.40058517456055 35.77562713623047 C 57.23592758178711 36.57661437988281 55.86502075195313 37.00000381469727 54.43606948852539 37.00000381469727 Z" stroke="none"/>
    <path d="M 29.49999809265137 0.9507160186767578 C 28.96277046203613 0.9507160186767578 28.4255428314209 1.165510177612305 28.02950668334961 1.595102310180664 L 3.093452453613281 28.6443920135498 C 1.912105560302734 29.92584609985352 2.821033477783203 31.99999237060547 4.563941955566406 31.99999237060547 L 54.43606948852539 31.99999237060547 C 56.17896270751953 31.99999237060547 57.087890625 29.92584609985352 55.90654373168945 28.6443920135498 L 30.97048950195313 1.595102310180664 C 30.57445335388184 1.165510177612305 30.0372257232666 0.9507160186767578 29.49999809265137 0.9507160186767578 M 29.49999809265137 -9.049282073974609 C 32.84194183349609 -9.049282073974609 36.05777740478516 -7.640045166015625 38.32294464111328 -5.182914733886719 L 63.25897979736328 21.86637496948242 C 66.48834228515625 25.36939239501953 67.33936309814453 30.45259284973145 65.42705535888672 34.81644821166992 C 63.51474380493164 39.18028259277344 59.20052719116211 41.99999237060547 54.43606948852539 41.99999237060547 L 4.563941955566406 41.99999237060547 C -0.200531005859375 41.99999237060547 -4.514747619628906 39.18028259277344 -6.427059173583984 34.81642913818359 C -8.339366912841797 30.45259284973145 -7.488346099853516 25.36939239501953 -4.258964538574219 21.86635589599609 L 20.67707061767578 -5.182914733886719 C 22.94221496582031 -7.640045166015625 26.15805435180664 -9.049282073974609 29.49999809265137 -9.049282073974609 Z" stroke="none" fill="#ffad82"/>
  </g>
  <rect id="Retângulo_3" data-name="Retângulo 3" width="249" height="10" transform="translate(35 210)" fill="#ffad82"/>
  <rect id="Retângulo_4" data-name="Retângulo 4" width="10" height="92" transform="translate(154 170)" fill="#ffad82"/>
  <rect id="Retângulo_5" data-name="Retângulo 5" width="10" height="92" transform="translate(236 170)" fill="#ffad82"/>
  <rect id="Retângulo_6" data-name="Retângulo 6" width="46" height="10" transform="translate(200 170)" fill="#ffad82"/>
  <rect id="Retângulo_7" data-name="Retângulo 7" width="10" height="40" transform="translate(90 170)" fill="#ffad82"/>
  <rect id="Retângulo_8" data-name="Retângulo 8" width="46" height="10" transform="translate(72 170)" fill="#ffad82"/>
</svg>
