<svg xmlns="http://www.w3.org/2000/svg" width="129.332" height="92.298" viewBox="0 0 129.332 92.298">
  <g id="Componente_2_1" data-name="Componente 2 – 1" transform="translate(3 3)">
    <g id="Shape_3" data-name="Shape 3" transform="translate(-19.844 -108.656)" fill="rgba(255,0,0,0)" stroke-linejoin="round">
      <path d="M 144.9926452636719 196.4541931152344 L 143.1756134033203 196.4541931152344 L 19.84370803833008 196.4541931152344 L 18.02667617797852 196.4541931152344 L 18.37085914611816 194.6700592041016 L 35.01897430419922 108.3717727661133 L 35.25354385375977 107.1559066772461 L 36.49182510375977 107.1559066772461 L 126.5275268554688 107.1559066772461 L 127.7658081054688 107.1559066772461 L 128.0003814697266 108.3717727661133 L 144.6484527587891 194.6700592041016 L 144.9926452636719 196.4541931152344 Z" stroke="none"/>
      <path d="M 36.4918212890625 108.6558837890625 L 19.84368896484375 194.9541931152344 L 143.1755981445313 194.9541931152344 L 126.5275115966797 108.6558837890625 L 36.4918212890625 108.6558837890625 M 36.4918212890625 105.6558837890625 L 126.5275115966797 105.6558837890625 C 127.9652557373047 105.6558837890625 129.2008666992188 106.6759033203125 129.4732055664063 108.0876312255859 L 146.1212921142578 194.3859558105469 C 146.2908630371094 195.2649230957031 146.0590209960938 196.1737060546875 145.4891357421875 196.8640747070313 C 144.9192199707031 197.5544128417969 144.07080078125 197.9541931152344 143.1755981445313 197.9541931152344 L 19.84368896484375 197.9541931152344 C 18.94850158691406 197.9541931152344 18.10008239746094 197.5544128417969 17.53016662597656 196.8640747070313 C 16.96026611328125 196.1737060546875 16.72843933105469 195.2649230957031 16.89801025390625 194.3859558105469 L 33.54612731933594 108.0876312255859 C 33.8184814453125 106.6759033203125 35.0540771484375 105.6558837890625 36.4918212890625 105.6558837890625 Z" stroke="none" fill="#ffad82"/>
    </g>
    <path id="Caminho_1" data-name="Caminho 1" d="M6.529,0H36.5L33.85,39.952H-.5Z" transform="translate(7.571 38.654)" fill="#ffad82"/>
    <path id="Caminho_2" data-name="Caminho 2" d="M2.255,0H32.228l1.989,40.053H0Z" transform="translate(44.604 38.553)" fill="#ffad82"/>
    <path id="Caminho_3" data-name="Caminho 3" d="M-10,0H20.106l7.029,40.053H-7.347Z" transform="translate(89.352 38.553)" fill="#ffad82"/>
    <path id="Caminho_4" data-name="Caminho 4" d="M5.04,0H31.3L29.443,29.968H0Z" transform="translate(14.896 4.474)" fill="#ffad82"/>
    <path id="Caminho_5" data-name="Caminho 5" d="M1.592,0H27.719l1.724,29.968H0Z" transform="translate(46.461 4.474)" fill="#ffad82"/>
    <path id="Caminho_6" data-name="Caminho 6" d="M-8,0H18.127L23.3,29.968H-6.143Z" transform="translate(85.23 4.474)" fill="#ffad82"/>
  </g>
</svg>
