<svg xmlns="http://www.w3.org/2000/svg" xmlns:xlink="http://www.w3.org/1999/xlink" width="500" height="500" viewBox="0 0 500 500"><defs><clipPath id="b"><rect width="500" height="500"/></clipPath></defs><g id="a" clip-path="url(#b)"><rect width="500" height="500" fill="rgba(0,0,0,0)"/><path d="M233,466a234.734,234.734,0,0,1-46.958-4.734,231.733,231.733,0,0,1-83.315-35.059A233.676,233.676,0,0,1,18.311,323.694,231.8,231.8,0,0,1,4.734,279.958a235.258,235.258,0,0,1,0-93.915,231.731,231.731,0,0,1,35.059-83.315A233.676,233.676,0,0,1,142.306,18.311,231.83,231.83,0,0,1,186.043,4.734a235.258,235.258,0,0,1,93.915,0,231.731,231.731,0,0,1,83.315,35.059A233.674,233.674,0,0,1,447.69,142.306a231.825,231.825,0,0,1,13.577,43.736,235.259,235.259,0,0,1,0,93.915,231.732,231.732,0,0,1-35.059,83.315c-2.3,3.406-4.73,6.8-7.221,10.1L404,359.871A211.069,211.069,0,0,0,446,233c0-117.449-95.552-213-213-213S20,115.551,20,233s95.552,213,213,213a212.541,212.541,0,0,0,141.808-54.2l15.016,13.52a233.182,233.182,0,0,1-66.13,42.366,231.8,231.8,0,0,1-43.736,13.577A234.734,234.734,0,0,1,233,466Z" transform="translate(17 17)" fill="#fff"/><path d="M147,294a148.073,148.073,0,0,1-29.625-2.986,146.226,146.226,0,0,1-52.564-22.119,147.422,147.422,0,0,1-53.258-64.676,146.21,146.21,0,0,1-8.566-27.593,148.449,148.449,0,0,1,0-59.251A146.225,146.225,0,0,1,25.106,64.811,147.422,147.422,0,0,1,89.781,11.552a146.211,146.211,0,0,1,27.593-8.566,148.449,148.449,0,0,1,59.251,0A146.225,146.225,0,0,1,229.19,25.106a147.422,147.422,0,0,1,53.258,64.676,146.206,146.206,0,0,1,8.566,27.593,148.451,148.451,0,0,1,0,59.251,146.226,146.226,0,0,1-22.119,52.564l-.092.136-15.068-13.567a127.195,127.195,0,1,0-29.265,31.813l15.117,13.611c-3.35,2.72-6.848,5.314-10.4,7.712A146.415,146.415,0,0,1,147,294Z" transform="translate(103 103)" fill="#fff"/><path d="M0,0H23V250H0Z" transform="translate(442.818 409.996) rotate(132)" fill="#fff"/><g transform="translate(414.365 397.754)" fill="#fff"><path d="M 47.78397369384766 79.01347351074219 C 43.70328140258789 79.01349639892578 39.78417205810547 77.50818634033203 36.74856185913086 74.77483367919922 L 12.96786308288574 53.3629264831543 C 9.692812919616699 50.41401290893555 7.762133121490479 46.36604309082031 7.531463146209717 41.96468353271484 C 7.300793170928955 37.56330490112305 8.797782897949219 33.3357048034668 11.74667358398438 30.06066513061523 L 27.13668251037598 12.96786499023438 C 28.72961235046387 11.19901466369629 30.63482284545898 9.824154853820801 32.79937362670898 8.881525039672852 C 34.8911247253418 7.97059440612793 37.11335372924805 7.50871467590332 39.40433502197266 7.50871467590332 C 43.48493194580078 7.50871467590332 47.40376281738281 9.013784408569336 50.43893432617188 11.74667453765869 L 74.21964263916016 33.15858459472656 C 76.59908294677734 35.30109405517578 78.29228973388672 38.06066513061523 79.11622619628906 41.13897323608398 C 79.88638305664063 44.01643753051758 79.86813354492188 47.03347015380859 79.06662750244141 49.88931655883789 L 52.13206481933594 49.18557357788086 L 51.54689407348633 49.17028427124023 L 51.62327194213867 49.75064468383789 L 55.24104309082031 77.23966979980469 C 52.94322967529297 78.40106201171875 50.37268447875977 79.01345825195313 47.78397369384766 79.01347351074219 Z" stroke="none"/><path d="M 47.78397369384766 78.51347351074219 L 47.78396224975586 78.51347351074219 C 50.17621612548828 78.51345825195313 52.55217361450195 77.97434997558594 54.69850921630859 76.94921112060547 L 51.1275520324707 49.81588363647461 L 50.97479248046875 48.6551628112793 L 52.14512252807617 48.68574523925781 L 78.68560028076172 49.37918853759766 C 79.36246490478516 46.72160720825195 79.34649658203125 43.93315887451172 78.63322448730469 41.26825332641602 C 77.83436584472656 38.28358459472656 76.19247436523438 35.60779571533203 73.88508605957031 33.53015518188477 L 50.10437393188477 12.11824417114258 C 47.16117477416992 9.468174934387207 43.36116409301758 8.00871467590332 39.40433502197266 8.00871467590332 C 37.18245315551758 8.00871467590332 35.02739334106445 8.456604957580566 32.9990119934082 9.339934349060059 C 30.90040397644043 10.25385475158691 29.05302238464355 11.58705425262451 27.50825309753418 13.30242443084717 L 12.11824321746826 30.39522552490234 C 9.258723258972168 33.57102584838867 7.807103157043457 37.67050552368164 8.030782699584961 41.93852615356445 C 8.254452705383301 46.20650482177734 10.12663269042969 50.13180541992188 13.30243301391602 52.9913444519043 L 37.08313369750977 74.40326690673828 C 40.02676391601563 77.05379486083984 43.82705307006836 78.51349639892578 47.78397369384766 78.51347351074219 M 47.78397369384766 79.51347351074219 C 43.57951354980469 79.51349639892578 39.54158401489258 77.96257781982422 36.41399383544922 75.14640808105469 L 12.63330268859863 53.73449325561523 C 9.259002685546875 50.69622421264648 7.269803047180176 46.52558517456055 7.032153129577637 41.9908561706543 C 6.794493198394775 37.45610427856445 8.336843490600586 33.10039520263672 11.37510299682617 29.72609519958496 L 26.76510238647461 12.63330459594727 C 28.40618324279785 10.81098461151123 30.36923217773438 9.394464492797852 32.5997428894043 8.423104286193848 C 34.75482177734375 7.484594821929932 37.04421234130859 7.00871467590332 39.40433502197266 7.00871467590332 C 43.60870361328125 7.00871467590332 47.6463623046875 8.559404373168945 50.77350234985352 11.3751049041748 L 74.55420684814453 32.78700637817383 C 77.00567626953125 34.9943733215332 78.75022125244141 37.83773422241211 79.59922027587891 41.00969314575195 C 80.42640686035156 44.10018539428711 80.37071990966797 47.34701538085938 79.43820190429688 50.39919281005859 L 52.11900329589844 49.68540573120117 L 55.78251266479492 77.52198791503906 C 53.33526229858398 78.82515716552734 50.56958389282227 79.51345825195313 47.78397369384766 79.51347351074219 Z" stroke="none" fill="#fff"/></g><path d="M61,122A61.017,61.017,0,0,1,37.256,4.793a61.035,61.035,0,0,1,80.187,79.384l-16.325-14.7a40.978,40.978,0,1,0-30.168,31.3L87.7,115.863c-.977.476-1.972.928-2.958,1.344A60.622,60.622,0,0,1,61,122Z" transform="translate(189 189)" fill="#fff"/></g></svg>