<svg xmlns="http://www.w3.org/2000/svg" xmlns:xlink="http://www.w3.org/1999/xlink" width="500" height="500" viewBox="0 0 500 500"><defs><clipPath id="b"><rect width="500" height="500"/></clipPath></defs><g id="a" clip-path="url(#b)"><rect width="500" height="500" fill="rgba(0,0,0,0)"/><path d="M107,236.561a.989.989,0,0,1-.912-.59L.634,1.41A1,1,0,0,1,1.546,0H212.454a1,1,0,0,1,.912,1.41L107.912,235.971A.989.989,0,0,1,107,236.561ZM20.526,10a1,1,0,0,0-.917,1.4l86.474,198.5a1,1,0,0,0,1.834,0L194.39,11.4a1,1,0,0,0-.916-1.4Z" transform="translate(146 184)" fill="#fff"/><path d="M97,238.5H0L201,2.375,189.158,29.264l3.532-8.179L19.33,229.291h81.726L97,238.5Z" transform="translate(454.502 422.5) rotate(180)" fill="#fff"/><path d="M77.484,105h0L-.2.032,154.25,0,77.485,105ZM18.979,10.5,77.5,88.2l58.521-77.7Z" transform="translate(176 89)" fill="#fff"/><path d="M195,95H0L124.136,0,195,95h0ZM130.439,9.662,19.511,94.554H193.762Z" transform="translate(52 89)" fill="#fff"/><path d="M196,0H0L124.773,95,196,0h0ZM131.108,85.338,19.611.447H194.756Z" transform="translate(455 184.001) rotate(180)" fill="#fff"/><path d="M97,0H0L201,236.125l-11.843-26.889,3.532,8.179L19.33,9.209h81.726L97,0Z" transform="translate(51.5 184)" fill="#fff"/><rect width="12" height="42" rx="6" transform="translate(363.673 25.909) rotate(31)" fill="#fff"/><rect width="12" height="42" rx="6" transform="translate(316.098 16.075) rotate(-14)" fill="#fff"/><rect width="12" height="42" rx="6" transform="translate(403.925 57.098) rotate(76)" fill="#fff"/></g></svg>