<svg xmlns="http://www.w3.org/2000/svg" xmlns:xlink="http://www.w3.org/1999/xlink" width="500" height="500" viewBox="0 0 500 500"><defs><style>.a{clip-path:url(#b);}.b,.c{fill:#fff;}.b{stroke:rgba(0,0,0,0);}.d{fill:rgba(0,0,0,0);}</style><clipPath id="b"><rect width="500" height="500"/></clipPath></defs><g id="a" class="a"><rect class="d" width="500" height="500"/><path class="b" d="M102.018,204.035A102.044,102.044,0,0,1,62.308,8.017a102.044,102.044,0,0,1,79.419,188A101.375,101.375,0,0,1,102.018,204.035Zm0-132A29.981,29.981,0,1,0,132,102.018,30.015,30.015,0,0,0,102.018,72.037Z" transform="translate(146.92 137.732)"/><path class="c" d="M227.908,211.152V247.21H265.74l1.182-23.645" transform="translate(32.255 -19.905)"/><path class="c" d="M102,204A102.027,102.027,0,0,1,62.3,8.016,102.026,102.026,0,0,1,141.7,195.984,101.361,101.361,0,0,1,102,204Zm0-131.143a29.124,29.124,0,1,0,26.113,16.19h-14.78v-13.9A28.965,28.965,0,0,0,102,72.857Z" transform="translate(146 137)"/><path class="c" d="M249.438,292.5a193.8,193.8,0,0,1-47.823-6.284,263.217,263.217,0,0,1-45.673-16.567c-26.049-12.131-52.86-29.045-79.686-50.273A581.049,581.049,0,0,1,20.8,169.1C7.647,155.529.075,146.341,0,146.25l.017-.023c.814-.981,8.311-9.959,20.784-22.829A581.053,581.053,0,0,1,76.256,73.125c26.827-21.229,53.638-38.143,79.686-50.274A263.222,263.222,0,0,1,201.616,6.284a185.371,185.371,0,0,1,95.715,0,266.022,266.022,0,0,1,45.857,16.567c26.184,12.131,53.182,29.045,80.245,50.273A590.758,590.758,0,0,1,479.445,123.4c13.315,13.583,20.979,22.761,21.055,22.852l-.018.023c-.825.981-8.422,9.96-21.037,22.829a590.75,590.75,0,0,1-56.013,50.273c-27.063,21.229-54.061,38.143-80.245,50.274a266.034,266.034,0,0,1-45.857,16.567A194.622,194.622,0,0,1,249.438,292.5Zm.1-274.931C190.8,17.569,134.25,52.558,97.158,81.91a511.256,511.256,0,0,0-48.793,44.234c-11.516,11.882-18.236,20.026-18.3,20.106.057.069,6.813,8.252,18.3,20.106a511.254,511.254,0,0,0,48.793,44.234c37.093,29.352,93.638,64.341,152.377,64.341s115.674-34.989,153.093-64.341a519.793,519.793,0,0,0,49.285-44.234c11.66-11.895,18.458-20.026,18.526-20.106-.057-.068-6.885-8.232-18.526-20.106A519.793,519.793,0,0,0,402.628,81.91C365.208,52.558,308.273,17.569,249.535,17.569Z" transform="translate(-0.5 93.5)"/></g></svg>